<svg width="42" height="41" viewBox="0 0 42 41" fill="none" xmlns="http://www.w3.org/2000/svg">
<path d="M6.35 16.45L11.65 18.7C12.25 17.5 12.8917 16.3167 13.575 15.15C14.2583 13.9834 14.9833 12.8667 15.75 11.8L11.8 11L6.35 16.45ZM14.05 20.5L20.7 27.15C22.6 26.2834 24.3833 25.3 26.05 24.2C27.7167 23.1 29.0667 22.0334 30.1 21C32.8 18.3 34.7833 15.5334 36.05 12.7C37.3167 9.86669 38 6.66669 38.1 3.10002C34.5333 3.20002 31.3333 3.88335 28.5 5.15002C25.6667 6.41669 22.9 8.40002 20.2 11.1C19.1667 12.1334 18.1 13.4834 17 15.15C15.9 16.8167 14.9167 18.6 14.05 20.5ZM25.5 15.7C24.8333 15.0334 24.5 14.2084 24.5 13.225C24.5 12.2417 24.8333 11.4167 25.5 10.75C26.1667 10.0834 26.9917 9.75002 27.975 9.75002C28.9583 9.75002 29.7833 10.0834 30.45 10.75C31.1167 11.4167 31.45 12.2417 31.45 13.225C31.45 14.2084 31.1167 15.0334 30.45 15.7C29.7833 16.3667 28.9583 16.7 27.975 16.7C26.9917 16.7 26.1667 16.3667 25.5 15.7ZM24.75 34.85L30.2 29.4L29.4 25.45C28.3333 26.2167 27.2167 26.9417 26.05 27.625C24.8833 28.3084 23.7 28.95 22.5 29.55L24.75 34.85ZM41.05 0.150019C41.35 4.68335 40.7833 8.81669 39.35 12.55C37.9167 16.2834 35.55 19.8 32.25 23.1L32.15 23.2L32.05 23.3L33.15 28.8C33.25 29.3 33.225 29.7834 33.075 30.25C32.925 30.7167 32.6667 31.1334 32.3 31.5L23.75 40.1L19.5 30.2L11 21.7L1.1 17.45L9.7 8.90002C10.0667 8.53335 10.4833 8.27502 10.95 8.12502C11.4167 7.97502 11.9 7.95002 12.4 8.05002L17.9 9.15002C17.9333 9.11669 17.9667 9.09169 18 9.07502C18.0333 9.05835 18.0667 9.03335 18.1 9.00002C21.4 5.70002 24.9167 3.32502 28.65 1.87502C32.3833 0.425019 36.5167 -0.149981 41.05 0.150019ZM4.45 27.75C5.61667 26.5834 7.04167 25.9917 8.725 25.975C10.4083 25.9584 11.8333 26.5334 13 27.7C14.1667 28.8667 14.7417 30.2917 14.725 31.975C14.7083 33.6584 14.1167 35.0834 12.95 36.25C12.0833 37.1167 10.7417 37.8334 8.925 38.4C7.10833 38.9667 4.38333 39.5 0.75 40C1.25 36.3667 1.775 33.6334 2.325 31.8C2.875 29.9667 3.58333 28.6167 4.45 27.75ZM6.55 29.9C6.08333 30.4 5.66667 31.1834 5.3 32.25C4.93333 33.3167 4.61667 34.6834 4.35 36.35C6.01667 36.0834 7.38333 35.7667 8.45 35.4C9.51667 35.0334 10.3 34.6167 10.8 34.15C11.4333 33.5834 11.7583 32.875 11.775 32.025C11.7917 31.175 11.5 30.4334 10.9 29.8C10.2667 29.2 9.525 28.9084 8.675 28.925C7.825 28.9417 7.11667 29.2667 6.55 29.9Z" fill="#F3CBF3"/>
</svg>
