<svg width="100" height="100" viewBox="0 0 100 100" fill="none" xmlns="http://www.w3.org/2000/svg">
<path d="M0 19C0 8.50659 8.50659 0 19 0H81C91.4934 0 100 8.50659 100 19V81C100 91.4934 91.4934 100 81 100H19C8.50659 100 0 91.4934 0 81V19Z" fill="#8616B7"/>
<path d="M64.5 100H35.5C36.8653 99.2484 37.3702 98.7293 37.5 97.5001V85.5001C32.7736 86.4756 30.1491 86.3224 25.5001 85.0001C23.7083 83.9377 22.8066 83.2049 21.5001 81.5001C20.3049 78.7537 19.572 77.2907 18.0001 75.0001C17.0823 73.6458 16.3029 72.9943 14.5001 72.0001C12.5082 69.9266 13.041 69.4645 16.0001 69.5001C18.8613 70.4159 20.3493 71.1623 22.5001 73.5001C23.4852 75.3961 24.1353 76.3862 25.5001 78C29.8348 80.6511 32.535 80.403 37.5 79C38.3028 75.645 39.0415 74.0764 41 72.0001C27.41 69.7313 20.7222 67.1809 18.0001 50.0001V45.5C19.2666 39.4287 20.5498 37.051 23.5001 34C22.0963 30.2569 21.6346 27.2244 23.5001 21C26.4407 20.0739 31.2431 21.7387 37.5 26.0001C47.3349 23.9136 52.8227 23.5289 62.5 26.0001C70.5421 21.218 73.3187 20.3057 76 21.0001C78.3034 26.6956 78.1642 29.4695 76.5 34.0001C80.2402 38.4977 81.4625 41.1198 82.0001 46.0001V50.0001C79.794 64.1077 75.6171 69.624 59 72.0001C61.4413 74.6767 61.9833 76.5217 62.5 80.0001V97.0001C62.5541 98.9736 63.1122 99.4978 64.5 100Z" fill="#FCFCFC"/>
</svg>
